Coordinates
version=1
nRows=11
nColumns=40
inDegrees=yes

Units are S.I. units (second, meters, Newtons, ...)
If the header above contains a line with 'inDegrees', this indicates whether rotational values are in degrees (yes) or radians (no).

endheader
time	pelvis_tilt	pelvis_list	pelvis_rotation	pelvis_tx	pelvis_ty	pelvis_tz	hip_flexion_r	hip_adduction_r	hip_rotation_r	knee_angle_r	knee_angle_r_beta	ankle_angle_r	subtalar_angle_r	mtp_angle_r	hip_flexion_l	hip_adduction_l	hip_rotation_l	knee_angle_l	knee_angle_l_beta	ankle_angle_l	subtalar_angle_l	mtp_angle_l	lumbar_extension	lumbar_bending	lumbar_rotation	arm_flex_r	arm_add_r	arm_rot_r	elbow_flex_r	pro_sup_r	wrist_flex_r	wrist_dev_r	arm_flex_l	arm_add_l	arm_rot_l	elbow_flex_l	pro_sup_l	wrist_flex_l	wrist_dev_l
      3.90000000	     -6.17392404	      6.34879327	    -11.74916864	      0.05113570	      1.31190678	      0.01568987	     55.56090242	     -1.85160468	     12.24110223	     95.69714102	      1.67023020	    -17.15446118	    -33.52669195	      0.00000000	     58.29872137	     -6.11286687	     -3.97113038	     58.12701693	      1.01450783	    -16.21142362	    -23.21757705	      0.00000000	    -35.68811311	     -7.61655325	      0.51679478	     58.55906367	     11.03935202	    -30.61274770	     50.36086947	     84.88207337	      0.00000000	      0.00000000	     67.01199669	      5.34443865	    -31.41996537	     49.02517532	     85.68889488	      0.00000000	      0.00000000
      3.91700000	     -6.09714755	      6.39628831	    -12.56142107	      0.05087780	      1.31176067	      0.01632519	     57.43807755	     -0.55951460	     13.38167666	     98.56668553	      1.72031320	    -17.09469041	    -33.41761582	      0.00000000	     55.60107151	     -6.57816451	     -5.20413786	     54.63189493	      0.95350644	    -17.10617400	    -23.01331832	      0.00000000	    -35.63382048	     -7.98339259	      1.16515592	     58.53729398	     11.11982607	    -30.63644428	     50.43112760	     85.06012740	      0.00000000	      0.00000000	     67.04651746	      5.38255245	    -31.72297273	     48.87694158	     85.94972636	      0.00000000	      0.00000000
      3.93300000	     -6.14783386	      6.20290588	    -13.08596441	      0.05068026	      1.31150690	      0.01675647	     59.34696831	      0.76036676	     14.06760943	    101.18791709	      1.76606232	    -16.92439578	    -33.38244307	      0.00000000	     53.06242738	     -6.98812548	     -6.09619696	     51.26360883	      0.89471876	    -18.19817594	    -22.18298978	      0.00000000	    -35.51637869	     -7.98317500	      1.70882391	     58.51603728	     11.20229081	    -30.59969746	     50.47323448	     85.25849591	      0.00000000	      0.00000000	     67.03372137	      5.38413945	    -31.98233643	     48.79933239	     86.12936740	      0.00000000	      0.00000000
      3.95000000	     -6.33806539	      5.87451740	    -13.32805660	      0.05047240	      1.31110523	      0.01684082	     61.33137434	      1.94742082	     14.36018557	    103.52586203	      1.80686715	    -16.59763214	    -33.38498151	      0.00000000	     50.78584353	     -7.28434816	     -6.70356554	     48.14442180	      0.84027868	    -19.42159038	    -21.19160253	      0.00000000	    -35.31749448	     -7.68888619	      2.10235269	     58.54273167	     11.28408403	    -30.50627984	     50.41151724	     85.19478822	      0.00000000	      0.00000000	     66.95386663	      5.32756786	    -32.12139941	     48.82781766	     86.02315911	      0.00000000	      0.00000000
      3.96700000	     -6.46325641	      5.76777657	    -13.71510177	      0.05031535	      1.31076610	      0.01718285	     63.31271873	      3.17967217	     14.88614827	    105.60628662	      1.84317741	    -16.20737948	    -33.26481812	      0.00000000	     48.40921181	     -7.55515183	     -7.72459934	     45.17869225	      0.78851693	    -20.43044808	    -20.14319556	      0.00000000	    -35.12813874	     -7.72480172	      2.48505168	     58.59000752	     11.36567821	    -30.43562830	     50.29881655	     85.18570705	      0.00000000	      0.00000000	     66.79973602	      5.21954208	    -32.12291803	     48.91572917	     85.97048795	      0.00000000	      0.00000000
      3.98300000	     -6.41390166	      5.86463533	    -14.53419679	      0.05008696	      1.31054982	      0.01799139	     65.18898222	      4.69600667	     15.73618643	    107.43386032	      1.87507459	    -15.75333451	    -33.05027335	      0.00000000	     45.79891244	     -7.95869216	     -9.39950080	     42.44170835	      0.74074755	    -20.94136269	    -18.97098693	      0.00000000	    -35.05533151	     -8.22498075	      3.05811121	     58.65831536	     11.51305438	    -30.46774853	     50.23845666	     85.38383809	      0.00000000	      0.00000000	     66.70959339	      4.98496239	    -31.93373562	     48.98686740	     86.10813030	      0.00000000	      0.00000000
      4.00000000	     -6.64046458	      5.69645931	    -14.82461500	      0.04992056	      1.31009408	      0.01819913	     67.19835117	      5.86633059	     15.91945921	    108.95178656	      1.90156740	    -14.94203006	    -32.99332372	      0.00000000	     43.79870406	     -8.14075182	    -10.23685776	     40.14402167	      0.70064535	    -21.93138604	    -17.91031740	      0.00000000	    -34.81566457	     -8.13079261	      3.38235418	     58.76006388	     11.61697047	    -30.38082402	     50.08395337	     85.35688177	      0.00000000	      0.00000000	     66.58836004	      4.80760138	    -31.86770111	     49.09753666	     85.99245441	      0.00000000	      0.00000000
      4.01700000	     -6.78036254	      5.74802739	    -15.46065032	      0.04974851	      1.30966672	      0.01877916	     69.12942615	      7.14066607	     16.32178490	    110.18869323	      1.92315550	    -13.74095762	    -32.98828103	      0.00000000	     41.85211853	     -8.30240836	    -11.31155981	     38.25267538	      0.66763513	    -22.71813183	    -16.87690799	      0.00000000	    -34.60913098	     -8.40430312	      3.87661529	     58.83955556	     11.70361551	    -30.31751559	     49.99380542	     85.34620874	      0.00000000	      0.00000000	     66.57741046	      4.58567943	    -31.73231788	     49.06435117	     85.91036502	      0.00000000	      0.00000000
      4.03300000	     -7.04838615	      5.55467983	    -15.67953885	      0.04965399	      1.30921136	      0.01878176	     71.07143315	      8.08804718	     16.20627941	    111.06595129	      1.93846654	    -12.55488595	    -33.12020932	      0.00000000	     40.31388718	     -8.24267062	    -11.41255827	     36.90874104	      0.64417905	    -23.08028964	    -16.46799759	      0.00000000	    -34.39173748	     -8.18368691	      4.16406210	     58.98040609	     11.79534965	    -30.22391325	     49.87097201	     85.14191914	      0.00000000	      0.00000000	     66.60816770	      4.43731283	    -31.73222577	     48.96471907	     85.65306467	      0.00000000	      0.00000000
      4.05000000	     -7.16721278	      5.72902824	    -16.44379931	      0.04933091	      1.30880306	      0.01960825	     72.87833096	      9.36191674	     16.56268920	    111.71248375	      1.94975066	    -10.98390814	    -33.08745909	      0.00000000	     38.87675805	     -8.44356710	    -12.63285503	     36.03433757	      0.62891783	    -24.08087173	    -15.47485844	      0.00000000	    -34.20312196	     -8.65819776	      4.69532324	     59.09837623	     11.88369460	    -30.18735545	     49.80761959	     85.26125065	      0.00000000	      0.00000000	     66.67157244	      4.22914026	    -31.57793125	     48.92804372	     85.69954821	      0.00000000	      0.00000000
      4.06700000	     -7.37036711	      5.80492324	    -16.76241427	      0.04914144	      1.30840294	      0.01984163	     74.69176710	     10.20529101	     16.48385848	    111.98158760	      1.95444741	     -9.97358931	    -33.33313938	      0.00000000	     37.93596484	     -8.40601053	    -13.36494315	     35.81245096	      0.62504518	    -25.05569570	    -15.61699426	      0.00000000	    -33.95097177	     -8.79467579	      5.02051178	     59.42902378	     11.84351674	    -30.12709748	     49.05442450	     82.19065403	      0.00000000	      0.00000000	     66.92674552	      4.19033316	    -31.50404254	     48.10388245	     82.50031697	      0.00000000	      0.00000000
